<svg width="46" height="46" viewBox="0 0 46 46" fill="none" xmlns="http://www.w3.org/2000/svg">
<circle cx="22.5962" cy="22.5962" r="22.5962" fill="#FFC400"/>
<path fill-rule="evenodd" clip-rule="evenodd" d="M14.8724 8.5838H30.9745C33.1977 8.5838 35 10.3693 35 12.5718V32.512C35 34.7145 33.1977 36.5 30.9745 36.5H14.8724C12.6492 36.5 10.8469 34.7145 10.8469 32.512V12.5718C10.8469 10.3693 12.6492 8.5838 14.8724 8.5838ZM14.8724 11.2425C14.1313 11.2425 13.5305 11.8376 13.5305 12.5718V16.5599H32.3162V12.5718C32.3162 11.8376 31.7155 11.2425 30.9744 11.2425H14.8724ZM15 25.879C15 29.9543 18.3579 33.2579 22.5 33.2579C26.6421 33.2579 30 29.9543 30 25.879C30 21.8037 26.6421 18.5 22.5 18.5C18.3579 18.5 15 21.8037 15 25.879Z" fill="white" fill-opacity="0.3"/>
<path d="M16.2142 15.2305C16.9552 15.2305 17.556 14.6353 17.556 13.9012C17.556 13.167 16.9552 12.5718 16.2142 12.5718C15.4731 12.5718 14.8723 13.167 14.8723 13.9012C14.8723 14.6353 15.4731 15.2305 16.2142 15.2305Z" fill="white"/>
<path d="M20.2398 15.2305C20.9809 15.2305 21.5816 14.6353 21.5816 13.9012C21.5816 13.167 20.9809 12.5718 20.2398 12.5718C19.4987 12.5718 18.8979 13.167 18.8979 13.9012C18.8979 14.6353 19.4987 15.2305 20.2398 15.2305Z" fill="white"/>
<path fill-rule="evenodd" clip-rule="evenodd" d="M22.3673 31.1347C25.3316 31.1347 27.7347 28.7541 27.7347 25.8174C27.7347 22.8807 25.3316 20.5 22.3673 20.5C19.403 20.5 17 22.8807 17 25.8174C17 28.7541 19.403 31.1347 22.3673 31.1347Z" fill="white"/>
</svg>
