<svg width="46" height="46" viewBox="0 0 46 46" fill="none" xmlns="http://www.w3.org/2000/svg">
<circle cx="22.5962" cy="22.5962" r="22.5962" fill="#FA7051"/>
<path fill-rule="evenodd" clip-rule="evenodd" d="M13.6084 13.6624C14.1851 12.5654 15.3357 11.8173 16.6611 11.8173H29.3532C30.6781 11.8173 31.8283 12.5648 32.4052 13.6611L39.251 17.2862C39.8117 17.5832 39.9923 18.2592 39.6543 18.7961L36.8765 23.209C36.5385 23.746 35.8099 23.9405 35.2492 23.6436L32.7998 22.3465V34.1592C32.7998 34.7937 32.2854 35.3081 31.6509 35.3081H14.3634C13.7289 35.3081 13.2145 34.7937 13.2145 34.1592V22.3475L10.7668 23.6436C10.2061 23.9405 9.47755 23.746 9.13955 23.209L6.36178 18.7961C6.02377 18.2592 6.20432 17.5832 6.76505 17.2862L13.6084 13.6624Z" fill="white" fill-opacity="0.3"/>
<path fill-rule="evenodd" clip-rule="evenodd" d="M20.2868 11.8173C20.103 11.8173 19.9302 11.9053 19.8222 12.054L18.8343 13.4132C18.6443 13.6745 18.7072 14.041 18.9733 14.2242L21.5008 15.9627L20.0415 25.3316C20.012 25.5214 20.0792 25.7134 20.2208 25.8433L22.619 28.0429C22.8387 28.2444 23.1759 28.2444 23.3956 28.0429L25.7938 25.8433C25.9354 25.7134 26.0027 25.5214 25.9731 25.3316L24.5139 15.9627L27.0413 14.2242C27.3075 14.041 27.3703 13.6745 27.1804 13.4132L26.1925 12.054C26.0844 11.9053 25.9117 11.8173 25.7278 11.8173H20.2868Z" fill="white"/>
</svg>
