<svg width="24" height="24" viewBox="0 0 24 24" fill="none" xmlns="http://www.w3.org/2000/svg">
<path fill-rule="evenodd" clip-rule="evenodd" d="M8.38764 8.29291C9.77339 6.23103 12.0821 5 14.5636 5C18.664 5 22 8.33594 22 12.4364C22 16.5369 18.664 19.8728 14.5636 19.8728C12.0894 19.8728 9.78442 18.6475 8.3977 16.5948C8.11661 16.1788 8.22606 15.6138 8.64206 15.3327C9.05818 15.0516 9.62315 15.161 9.9043 15.577C10.9524 17.1284 12.6942 18.0547 14.5636 18.0547C17.6615 18.0547 20.1818 15.5344 20.1818 12.4364C20.1818 9.33848 17.6615 6.81818 14.5636 6.81812C12.6887 6.81812 10.9441 7.74855 9.89673 9.30703C9.61661 9.72382 9.05182 9.83449 8.63509 9.55448C8.21842 9.27442 8.10764 8.70958 8.38764 8.29291ZM15.6362 13.3455H5.10382L6.27915 14.5208C6.63418 14.8759 6.63418 15.4515 6.27915 15.8065C6.1017 15.9841 5.86903 16.0728 5.63636 16.0728C5.4037 16.0728 5.17103 15.9841 4.99352 15.8065L2.26642 13.0794C2.24539 13.0584 2.22552 13.0363 2.20655 13.0133C2.20398 13.0102 2.2016 13.0069 2.19923 13.0036C2.1974 13.0011 2.19556 12.9985 2.19364 12.9961C2.17982 12.9784 2.16606 12.9605 2.15352 12.9418C2.15153 12.9389 2.14975 12.9358 2.14796 12.9327C2.14657 12.9304 2.14518 12.928 2.1437 12.9256C2.13103 12.9059 2.11873 12.8861 2.10758 12.8654C2.10647 12.8633 2.10547 12.8611 2.10447 12.859C2.10361 12.8571 2.10275 12.8552 2.10182 12.8534C2.09024 12.831 2.07915 12.8084 2.06945 12.7849C2.06883 12.7835 2.06832 12.782 2.06781 12.7805C2.06737 12.7792 2.06693 12.778 2.06642 12.7767C2.05642 12.752 2.04727 12.727 2.03945 12.7013C2.039 12.6998 2.03864 12.6983 2.03827 12.6968C2.03791 12.6953 2.03755 12.6937 2.03709 12.6922C2.0297 12.667 2.02303 12.6415 2.01782 12.6153C2.01697 12.6112 2.01639 12.6069 2.0158 12.6026C2.01535 12.5993 2.01489 12.596 2.0143 12.5927C2.01397 12.5907 2.01364 12.5888 2.01331 12.5869C2.00993 12.5672 2.00654 12.5474 2.00461 12.5272C2.00152 12.4972 2 12.4668 2 12.4364C2 12.406 2.00152 12.3757 2.00461 12.3457C2.00673 12.3238 2.01048 12.3024 2.01424 12.2809C2.01488 12.2773 2.01537 12.2737 2.01586 12.2701C2.01643 12.2659 2.017 12.2617 2.01782 12.2575C2.02297 12.2316 2.0297 12.2064 2.03703 12.1813C2.03742 12.1799 2.03774 12.1785 2.03806 12.1772C2.03849 12.1753 2.03892 12.1734 2.03952 12.1715C2.04727 12.146 2.05642 12.1212 2.0663 12.0967C2.06682 12.0954 2.06727 12.0941 2.06773 12.0928C2.06829 12.0911 2.06885 12.0895 2.06952 12.0879C2.07915 12.0647 2.09018 12.0421 2.10164 12.0199C2.1027 12.0178 2.10367 12.0158 2.10464 12.0137C2.10561 12.0116 2.10658 12.0095 2.10764 12.0075C2.11867 11.9869 2.13091 11.9672 2.14339 11.9477C2.14507 11.9451 2.14662 11.9425 2.14816 11.9398C2.14991 11.9368 2.15165 11.9339 2.15358 11.931C2.16606 11.9123 2.1797 11.8946 2.19358 11.877C2.19555 11.8744 2.19742 11.8718 2.19928 11.8693C2.20166 11.866 2.20403 11.8627 2.20661 11.8595C2.22552 11.8365 2.24539 11.8145 2.26648 11.7935L4.99358 9.06636C5.34867 8.71133 5.9243 8.71133 6.27921 9.06636C6.63424 9.42139 6.63424 9.99703 6.27921 10.352L5.10382 11.5273H15.6362C16.1383 11.5273 16.5453 11.9344 16.5453 12.4364C16.5453 12.9385 16.1383 13.3455 15.6362 13.3455Z" fill="#666FE8"/>
</svg>
