<svg width="46" height="46" viewBox="0 0 46 46" fill="none" xmlns="http://www.w3.org/2000/svg">
<circle cx="22.5962" cy="22.5962" r="22.5962" fill="white"/>
<path fill-rule="evenodd" clip-rule="evenodd" d="M14.8724 8.58374H30.9745C33.1977 8.58374 35 10.3692 35 12.5718V32.5119C35 34.7144 33.1977 36.4999 30.9745 36.4999H14.8724C12.6492 36.4999 10.8469 34.7144 10.8469 32.5119V12.5718C10.8469 10.3692 12.6492 8.58374 14.8724 8.58374ZM14.8724 11.2424C14.1313 11.2424 13.5305 11.8376 13.5305 12.5718V16.5598H32.3162V12.5718C32.3162 11.8376 31.7155 11.2424 30.9744 11.2424H14.8724ZM15 25.8789C15 29.9542 18.3579 33.2579 22.5 33.2579C26.6421 33.2579 30 29.9542 30 25.8789C30 21.8036 26.6421 18.4999 22.5 18.4999C18.3579 18.4999 15 21.8036 15 25.8789Z" fill="#FFC400"/>
<path d="M16.2142 15.2304C16.9552 15.2304 17.556 14.6353 17.556 13.9011C17.556 13.1669 16.9552 12.5717 16.2142 12.5717C15.4731 12.5717 14.8723 13.1669 14.8723 13.9011C14.8723 14.6353 15.4731 15.2304 16.2142 15.2304Z" fill="#FFC400" fill-opacity="0.3"/>
<path d="M20.2398 15.2304C20.9809 15.2304 21.5816 14.6353 21.5816 13.9011C21.5816 13.1669 20.9809 12.5717 20.2398 12.5717C19.4987 12.5717 18.8979 13.1669 18.8979 13.9011C18.8979 14.6353 19.4987 15.2304 20.2398 15.2304Z" fill="#FFC400" fill-opacity="0.3"/>
<path fill-rule="evenodd" clip-rule="evenodd" d="M22.3673 31.1347C25.3316 31.1347 27.7347 28.754 27.7347 25.8173C27.7347 22.8806 25.3316 20.4999 22.3673 20.4999C19.403 20.4999 17 22.8806 17 25.8173C17 28.754 19.403 31.1347 22.3673 31.1347Z" fill="#FFC400" fill-opacity="0.3"/>
</svg>
