<svg width="46" height="46" viewBox="0 0 46 46" fill="none" xmlns="http://www.w3.org/2000/svg">
<circle cx="22.9035" cy="22.5962" r="22.5962" fill="white"/>
<path d="M19.1725 22.186C16.3199 22.186 14.0073 19.8272 14.0073 16.9175C14.0073 14.0077 16.3199 11.6489 19.1725 11.6489C22.0252 11.6489 24.3377 14.0077 24.3377 16.9175C24.3377 19.8272 22.0252 22.186 19.1725 22.186Z" fill="#DD7BFF"/>
<path opacity="0.3" d="M7.55187 34.3027C8.05238 28.0164 13.0544 24.8203 19.1512 24.8203C25.3338 24.8203 30.4133 27.8408 30.7917 34.3038C30.8068 34.5612 30.7917 35.3575 29.8217 35.3575C25.0367 35.3575 17.9263 35.3575 8.49045 35.3575C8.1666 35.3575 7.5246 34.6451 7.55187 34.3027Z" fill="#DD7BFF"/>
<path d="M32.8603 16.354C31.2755 16.354 29.9907 15.0435 29.9907 13.427C29.9907 11.8105 31.2755 10.5 32.8603 10.5C34.4451 10.5 35.7298 11.8105 35.7298 13.427C35.7298 15.0435 34.4451 16.354 32.8603 16.354Z" fill="#DD7BFF" fill-opacity="0.3"/>
<path d="M26.4043 23.0855C26.6823 19.593 29.4613 17.8174 32.8484 17.8174C36.2831 17.8174 39.1051 19.4955 39.3153 23.086C39.3237 23.2291 39.3153 23.6714 38.7764 23.6714C36.1181 23.6714 32.1678 23.6714 26.9257 23.6714C26.7458 23.6714 26.3891 23.2757 26.4043 23.0855Z" fill="#DD7BFF"/>
</svg>
