<svg width="46" height="46" viewBox="0 0 46 46" fill="none" xmlns="http://www.w3.org/2000/svg">
<circle cx="22.5962" cy="22.5962" r="22.5962" fill="#7058D4"/>
<path fill-rule="evenodd" clip-rule="evenodd" d="M24.5515 32.2899C24.5515 32.6996 24.97 32.9786 25.3565 32.8424C27.1593 32.2074 31.8871 30.7473 38.4902 30.2326C38.7912 30.2091 39.027 29.9651 39.027 29.6632C39.027 27.0669 39.027 15.7254 39.027 13.0552C39.027 12.7379 38.7737 12.4926 38.4567 12.5043C36.6496 12.5714 30.8201 12.9665 24.9108 15.297C24.6935 15.3827 24.5515 15.5846 24.5515 15.8181C24.5515 18.0095 24.5515 29.1082 24.5515 32.2899Z" fill="white"/>
<path fill-rule="evenodd" clip-rule="evenodd" d="M21.3347 32.2899C21.3347 32.6996 20.9162 32.9786 20.5298 32.8424C18.727 32.2074 13.9991 30.7473 7.396 30.2326C7.09502 30.2091 6.85922 29.9651 6.85922 29.6632C6.85922 27.0669 6.85922 15.7254 6.85922 13.0552C6.85922 12.7379 7.1125 12.4926 7.42952 12.5043C9.23663 12.5714 15.0661 12.9665 20.9755 15.297C21.1927 15.3827 21.3347 15.5846 21.3347 15.8181C21.3347 18.0095 21.3347 29.1082 21.3347 32.2899Z" fill="white" fill-opacity="0.3"/>
</svg>
