<svg width="20" height="24" viewBox="0 0 20 24" fill="none" xmlns="http://www.w3.org/2000/svg">
<path d="M20 9.81818C20 17.4545 10 24 10 24C10 24 0 17.4545 0 9.81818C3.95203e-08 7.21424 1.05357 4.71695 2.92893 2.87568C4.8043 1.03441 7.34784 0 10 0C12.6522 0 15.1957 1.03441 17.0711 2.87568C18.9464 4.71695 20 7.21424 20 9.81818Z" fill="#FFC400"/>
<path d="M9.99999 14.6181C12.4546 14.6181 14.4444 12.6645 14.4444 10.2545C14.4444 7.84454 12.4546 5.89087 9.99999 5.89087C7.54539 5.89087 5.55554 7.84454 5.55554 10.2545C5.55554 12.6645 7.54539 14.6181 9.99999 14.6181Z" fill="white"/>
</svg>
