<svg width="46" height="46" viewBox="0 0 46 46" fill="none" xmlns="http://www.w3.org/2000/svg">
<circle cx="22.5962" cy="22.5962" r="22.5962" fill="white"/>
<path fill-rule="evenodd" clip-rule="evenodd" d="M13.6084 13.6624C14.1851 12.5655 15.3357 11.8174 16.6611 11.8174H29.3532C30.6781 11.8174 31.8283 12.5649 32.4052 13.6611L39.251 17.2863C39.8117 17.5832 39.9923 18.2592 39.6543 18.7962L36.8765 23.2091C36.5385 23.746 35.8099 23.9406 35.2492 23.6437L32.7998 22.3466V34.1593C32.7998 34.7938 32.2854 35.3082 31.6509 35.3082H14.3634C13.7289 35.3082 13.2145 34.7938 13.2145 34.1593V22.3475L10.7668 23.6437C10.2061 23.9406 9.47755 23.746 9.13955 23.2091L6.36178 18.7962C6.02377 18.2592 6.20432 17.5832 6.76505 17.2863L13.6084 13.6624Z" fill="#FA7051" fill-opacity="0.3"/>
<path fill-rule="evenodd" clip-rule="evenodd" d="M20.2868 11.8174C20.103 11.8174 19.9302 11.9054 19.8222 12.0541L18.8343 13.4132C18.6443 13.6746 18.7072 14.0411 18.9733 14.2242L21.5008 15.9628L20.0415 25.3316C20.012 25.5214 20.0792 25.7135 20.2208 25.8433L22.619 28.043C22.8387 28.2444 23.1759 28.2444 23.3956 28.043L25.7938 25.8433C25.9354 25.7135 26.0027 25.5214 25.9731 25.3316L24.5139 15.9628L27.0413 14.2242C27.3075 14.0411 27.3703 13.6746 27.1804 13.4132L26.1925 12.0541C26.0844 11.9054 25.9117 11.8174 25.7278 11.8174H20.2868Z" fill="#FA7051"/>
</svg>
