<svg width="184" height="24" viewBox="0 0 184 24" fill="none" xmlns="http://www.w3.org/2000/svg">
<path d="M10.9919 23.6087C7.73519 23.6087 5.14811 22.5586 3.23063 20.4585C1.3233 18.3584 0.369629 15.5177 0.369629 11.9364C0.369629 8.28406 1.36388 5.38755 3.35238 3.24687C5.34087 1.09604 8.02941 0.0206299 11.418 0.0206299C14.1369 0.0206299 16.374 0.700371 18.1292 2.05985C19.8944 3.41934 20.9242 5.25566 21.2184 7.56881H16.5312C16.4095 6.59485 15.8617 5.74264 14.8877 5.01217C13.9137 4.27155 12.8383 3.90125 11.6615 3.90125C9.63238 3.90125 8.04462 4.60635 6.89819 6.01656C5.75176 7.41663 5.17855 9.36454 5.17855 11.8603C5.17855 14.3967 5.7264 16.3294 6.8221 17.6584C7.92795 18.9773 9.54107 19.6368 11.6615 19.6368H11.6462C13.4521 19.6368 14.8623 18.9469 15.8769 17.5671C16.4349 16.7859 16.8458 15.8677 17.1095 14.8126V14.767H11.8441V10.9168H21.2184V22.9847H18.0987L17.6422 20.0933L17.3682 20.4585C15.7957 22.5586 13.6652 23.6087 10.9766 23.6087H10.9919Z" fill="#36B368"/>
<path d="M25.2512 23V6.44267H27.3209H29.4058V9.4102C29.5579 9.08554 29.7304 8.77104 29.9232 8.46667C30.9479 6.82312 32.2718 6.00134 33.8951 6.00134L34.8843 6.01656V10.4755C34.4988 10.4349 34.0625 10.4146 33.5755 10.4146C32.2465 10.4146 31.2522 10.7443 30.5928 11.4038C29.9435 12.0632 29.6188 13.0625 29.6188 14.4017V23H27.4426H25.2512Z" fill="#36B368"/>
<path d="M43.9847 23.4261C41.4686 23.4261 39.5258 22.6499 38.1562 21.0977C36.7967 19.5455 36.1169 17.3338 36.1169 14.4626C36.1169 11.8147 36.8119 9.745 38.2018 8.25362C39.5917 6.7521 41.5194 6.00134 43.9847 6.00134C46.5109 6.00134 48.4538 6.76732 49.8132 8.29928C51.1829 9.82109 51.8677 11.9922 51.8677 14.8126C51.888 15.1373 51.8626 15.467 51.7916 15.8018H40.515C40.6164 17.1106 40.9056 18.0896 41.3824 18.7389C41.9911 19.5505 43.0057 19.9563 44.426 19.9563C45.0855 19.9563 45.6942 19.7687 46.2522 19.3933C46.8203 19.0179 47.1602 18.5664 47.2718 18.0389H51.7155C51.3401 19.723 50.4676 21.0419 49.098 21.9956C47.7385 22.9492 46.0341 23.4261 43.9847 23.4261ZM47.3175 13.0169C47.216 12.0226 46.9522 11.2465 46.5261 10.6885C45.9681 9.9479 45.1007 9.5776 43.9238 9.5776C42.7977 9.5776 41.9404 10.0088 41.352 10.8711C40.9867 11.419 40.723 12.1342 40.5606 13.0169H47.3175Z" fill="#36B368"/>
<path d="M61.3333 23.4261C58.8173 23.4261 56.8744 22.6499 55.5048 21.0977C54.1453 19.5455 53.4656 17.3338 53.4656 14.4626C53.4656 11.8147 54.1605 9.745 55.5505 8.25362C56.9404 6.7521 58.868 6.00134 61.3333 6.00134C63.8595 6.00134 65.8024 6.76732 67.1619 8.29928C68.5315 9.82109 69.2163 11.9922 69.2163 14.8126C69.2366 15.1373 69.2112 15.467 69.1402 15.8018H57.8636C57.9651 17.1106 58.2542 18.0896 58.731 18.7389C59.3398 19.5505 60.3543 19.9563 61.7747 19.9563C62.4341 19.9563 63.0428 19.7687 63.6008 19.3933C64.169 19.0179 64.5088 18.5664 64.6204 18.0389H69.0641C68.6888 19.723 67.8162 21.0419 66.4466 21.9956C65.0871 22.9492 63.3827 23.4261 61.3333 23.4261ZM64.6661 13.0169C64.5646 12.0226 64.3009 11.2465 63.8748 10.6885C63.3168 9.9479 62.4493 9.5776 61.2725 9.5776C60.1463 9.5776 59.289 10.0088 58.7006 10.8711C58.3354 11.419 58.0716 12.1342 57.9093 13.0169H64.6661Z" fill="#36B368"/>
<path d="M72.123 23V6.44267H74.1926H76.2775V8.89278C76.45 8.59857 76.6377 8.31957 76.8406 8.05579C77.916 6.68616 79.4784 6.00134 81.5278 6.00134C83.2728 6.00134 84.6373 6.51876 85.6214 7.55359C86.6157 8.58842 87.1128 10.024 87.1128 11.8603V23H84.9366H82.7452V12.6517C82.7452 11.627 82.522 10.8711 82.0756 10.3842C81.6394 9.88703 80.9647 9.63847 80.0516 9.63847C78.9052 9.63847 78.0225 9.98341 77.4036 10.6733C76.7949 11.3632 76.4906 12.3574 76.4906 13.656V23H74.3144H72.123Z" fill="#36B368"/>
<path d="M91.3587 23V0.629354H93.687H96.0306V9.01453H104.781V0.629354H107.109H109.453V23H107.125H104.781V12.8647H96.0306V23H93.7022H91.3587Z" fill="#36B368"/>
<path d="M121.201 23.4261C118.614 23.4261 116.555 22.6499 115.023 21.0977C113.501 19.5455 112.74 17.4504 112.74 14.8126C112.74 12.1139 113.501 9.97327 115.023 8.39058C116.555 6.79776 118.614 6.00134 121.201 6.00134C123.809 6.00134 125.873 6.79776 127.395 8.39058C128.917 9.97327 129.678 12.1139 129.678 14.8126C129.678 17.4504 128.917 19.5455 127.395 21.0977C125.873 22.6499 123.809 23.4261 121.201 23.4261ZM121.201 19.7737C122.5 19.7737 123.489 19.3476 124.169 18.4954C124.849 17.6432 125.188 16.4004 125.188 14.767C125.188 13.093 124.849 11.8248 124.169 10.9624C123.489 10.0899 122.5 9.65369 121.201 9.65369C119.903 9.65369 118.914 10.0899 118.234 10.9624C117.564 11.8248 117.229 13.093 117.229 14.767C117.229 16.4004 117.564 17.6432 118.234 18.4954C118.914 19.3476 119.903 19.7737 121.201 19.7737Z" fill="#36B368"/>
<path d="M137.15 6.44267V16.8062C137.15 17.8207 137.368 18.5715 137.804 19.0585C138.241 19.5455 138.91 19.7889 139.813 19.7889C140.949 19.7889 141.822 19.444 142.431 18.7541C143.039 18.0642 143.344 17.07 143.344 15.7714V6.44267H145.52H147.711V23H145.642H143.557V20.5194C143.405 20.8238 143.222 21.1078 143.009 21.3716C141.933 22.7413 140.376 23.4261 138.337 23.4261C136.592 23.4261 135.227 22.9137 134.243 21.889C133.269 20.8542 132.782 19.4237 132.782 17.5975V6.44267H134.959H137.15Z" fill="#36B368"/>
<path d="M161.179 11.4038C161.179 10.7646 160.916 10.2523 160.388 9.86674C159.86 9.48121 159.16 9.28845 158.288 9.28845C157.446 9.28845 156.786 9.43556 156.309 9.72978C155.843 10.0138 155.609 10.4146 155.609 10.932C155.609 11.2972 155.878 11.6117 156.416 11.8755C156.944 12.1292 157.882 12.4082 159.231 12.7125C161.91 13.3111 163.7 13.9655 164.603 14.6757C165.506 15.3858 165.958 16.5018 165.958 18.0236C165.958 19.6469 165.298 20.9557 163.979 21.9499C162.671 22.934 160.941 23.4261 158.79 23.4261C156.244 23.4261 154.28 22.9391 152.901 21.9651C151.531 20.9912 150.801 19.5708 150.709 17.7041H155.153C155.183 18.465 155.518 19.0635 156.157 19.4998C156.807 19.9259 157.684 20.139 158.79 20.139C159.663 20.139 160.342 19.9918 160.829 19.6976C161.326 19.3933 161.575 18.9722 161.575 18.4345C161.575 18.0592 161.337 17.7396 160.86 17.4758C160.383 17.2222 159.546 16.9634 158.349 16.6997C155.549 16.0707 153.677 15.4061 152.733 14.7061C151.79 14.0162 151.318 12.9459 151.318 11.4951C151.318 9.85152 151.927 8.52755 153.144 7.52315C154.372 6.50861 155.985 6.00134 157.983 6.00134C160.236 6.00134 162.052 6.49847 163.432 7.49272C164.811 8.47682 165.501 9.7805 165.501 11.4038H161.179Z" fill="#36B368"/>
<path d="M175.713 23.4261C173.197 23.4261 171.254 22.6499 169.884 21.0977C168.525 19.5455 167.845 17.3338 167.845 14.4626C167.845 11.8147 168.54 9.745 169.93 8.25362C171.32 6.7521 173.247 6.00134 175.713 6.00134C178.239 6.00134 180.182 6.76732 181.541 8.29928C182.911 9.82109 183.596 11.9922 183.596 14.8126C183.616 15.1373 183.59 15.467 183.519 15.8018H172.243C172.344 17.1106 172.633 18.0896 173.11 18.7389C173.719 19.5505 174.734 19.9563 176.154 19.9563C176.813 19.9563 177.422 19.7687 177.98 19.3933C178.548 19.0179 178.888 18.5664 179 18.0389H183.443C183.068 19.723 182.195 21.0419 180.826 21.9956C179.466 22.9492 177.762 23.4261 175.713 23.4261ZM179.045 13.0169C178.944 12.0226 178.68 11.2465 178.254 10.6885C177.696 9.9479 176.829 9.5776 175.652 9.5776C174.526 9.5776 173.668 10.0088 173.08 10.8711C172.715 11.419 172.451 12.1342 172.288 13.0169H179.045Z" fill="#36B368"/>
</svg>
